<svg xmlns="http://www.w3.org/2000/svg" viewBox="0 0 512 512" width="512" height="512">
  <rect width="512" height="512" rx="80" fill="#2c2c3a"/>
  <g transform="translate(40, 60) scale(9.4)">
    <path fill="#2d9fd3" d="M45.83,31.22l-6.67,8.62h-16.85c-2.91,0-5.6-.43-8.07-1.3-2.47-.87-4.61-2.06-6.39-3.59-1.79-1.52-3.19-3.33-4.21-5.42-1.02-2.09-1.53-4.35-1.53-6.79s.51-4.67,1.53-6.69,2.42-3.76,4.21-5.22c1.79-1.45,3.92-2.57,6.39-3.36,2.47-.78,5.17-1.18,8.07-1.18h23.52l-6.67,8.73h-16.85c-1.4,0-2.71.2-3.91.6-1.2.4-2.24.96-3.11,1.68-.87.72-1.55,1.58-2.06,2.58s-.75,2.11-.75,3.31.24,2.3.73,3.28c.48.99,1.17,1.83,2.06,2.53.88.7,1.93,1.25,3.13,1.63,1.2.38,2.51.58,3.91.58h23.52Z"/>
  </g>
</svg>
