<?xml version="1.0" encoding="UTF-8"?>
<svg id="Layer_1" xmlns="http://www.w3.org/2000/svg" version="1.1" viewBox="0 0 353.27 47">
  <!-- Generator: Adobe Illustrator 30.2.1, SVG Export Plug-In . SVG Version: 2.1.1 Build 1)  -->
  <defs>
    <style>
      .st0 {
        fill: #049bd0;
      }
    </style>
  </defs>
  <path class="st0" d="M45.83,31.22l-6.67,8.62h-16.85c-2.91,0-5.6-.43-8.07-1.3-2.47-.87-4.61-2.06-6.39-3.59-1.79-1.52-3.19-3.33-4.21-5.42-1.02-2.09-1.53-4.35-1.53-6.79s.51-4.67,1.53-6.69,2.42-3.76,4.21-5.22c1.79-1.45,3.92-2.57,6.39-3.36,2.47-.78,5.17-1.18,8.07-1.18h23.52l-6.67,8.73h-16.85c-1.4,0-2.71.2-3.91.6-1.2.4-2.24.96-3.11,1.68-.87.72-1.55,1.58-2.06,2.58s-.75,2.11-.75,3.31.24,2.3.73,3.28c.48.99,1.17,1.83,2.06,2.53.88.7,1.93,1.25,3.13,1.63,1.2.38,2.51.58,3.91.58h23.52Z"/>
  <path class="st0" d="M97.48,6.3l-19.91,22.47v11.08h-10.43v-11.13L46.68,6.3h13.34l8.02,9.33c.27.3.62.69,1.05,1.18s.89,1,1.35,1.53c.47.54.9,1.04,1.3,1.5.4.47.68.82.85,1.05.33-.47.82-1.1,1.46-1.91.63-.8,1.55-1.94,2.76-3.41l7.62-9.28h13.05Z"/>
  <path class="st0" d="M133.34,40.4c-.67,0-1.33-.11-1.98-.33s-1.38-.71-2.18-1.48l-20.56-18.45v19.71h-9.43V12.02c0-1.1.16-2.06.48-2.86s.74-1.45,1.25-1.96c.52-.5,1.12-.87,1.8-1.1.69-.23,1.4-.35,2.13-.35.63,0,1.28.11,1.93.33s1.4.71,2.23,1.48l20.56,18.45V6.3h9.48v27.78c0,1.1-.16,2.06-.48,2.86-.32.8-.74,1.46-1.25,1.98-.52.52-1.13.9-1.83,1.13s-1.42.35-2.16.35h0Z"/>
  <path class="st0" d="M186.84,6.3l-6.72,8.73h-11.98v24.82h-10.38V15.03h-15.75l6.72-8.73s38.11,0,38.11,0Z"/>
  <path class="st0" d="M234.23,39.85h-13.89l-7.47-8.88h-15.95v8.88h-10.38v-17.15h29.18c1.61,0,2.96-.33,4.06-1,1.1-.67,1.65-1.59,1.65-2.76,0-1.3-.5-2.28-1.5-2.93s-2.41-.98-4.21-.98h-29.18l6.77-8.73h21.56c1.91,0,3.88.18,5.92.53,2.04.35,3.89.98,5.57,1.88,1.67.9,3.05,2.12,4.14,3.66s1.63,3.51,1.63,5.92c0,1.3-.2,2.54-.6,3.71-.4,1.17-.98,2.22-1.73,3.16s-1.67,1.73-2.76,2.38c-1.09.65-2.32,1.11-3.69,1.38.57.43,1.2.99,1.91,1.65.7.67,1.64,1.59,2.81,2.76l6.17,6.52h0Z"/>
  <path class="st0" d="M248.47,39.85h-10.38V6.3h10.38v33.55Z"/>
  <path class="st0" d="M297.61,31.22l-6.67,8.62h-16.85c-2.91,0-5.6-.43-8.07-1.3s-4.61-2.06-6.39-3.59c-1.79-1.52-3.19-3.33-4.21-5.42-1.02-2.09-1.53-4.35-1.53-6.79s.51-4.67,1.53-6.69,2.42-3.76,4.21-5.22c1.79-1.45,3.92-2.57,6.39-3.36,2.47-.78,5.17-1.18,8.07-1.18h23.52l-6.67,8.73h-16.85c-1.4,0-2.71.2-3.91.6s-2.24.96-3.11,1.68c-.87.72-1.55,1.58-2.06,2.58-.5,1-.75,2.11-.75,3.31s.24,2.3.73,3.28c.48.99,1.17,1.83,2.06,2.53.88.7,1.93,1.25,3.13,1.63s2.51.58,3.91.58h23.52Z"/>
  <path class="st0" d="M313.71,39.85l6.27-8.62h11.56c1.09,0,2.03.03,2.83.1-.47-.6-1.01-1.36-1.63-2.28s-1.21-1.78-1.78-2.58l-6.02-8.88-15.75,22.26h-12.29l21.51-30.34c.7-.97,1.59-1.84,2.66-2.61s2.42-1.15,4.06-1.15,2.88.36,3.94,1.08c1.05.72,1.95,1.61,2.68,2.68l20.96,30.34h-39.01.01Z"/>
</svg>